<svg xmlns="http://www.w3.org/2000/svg" width="31.109" height="39.692" viewBox="0 0 31.109 39.692">
  <g id="Pin" transform="translate(-20.811 -106.37)">
    <path id="Tracé_218" data-name="Tracé 218" d="M35.176,11.371A15.266,15.266,0,0,0,23.1,3.087a17.349,17.349,0,0,0-3.464,0A15.27,15.27,0,0,0,7.555,11.37,16.5,16.5,0,0,0,9.816,29.527l10.37,12.608a1.527,1.527,0,0,0,2.359,0l10.37-12.608a16.5,16.5,0,0,0,2.261-18.156Zm-13.811,13a6.107,6.107,0,1,1,6.107-6.107A6.107,6.107,0,0,1,21.366,24.372Z" transform="translate(15 103.369)" fill="#ec6608"/>
  </g>
</svg>
